{"glyphs":{":":{"x_min":0,"x_max":252,"ha":252,"o":"m 43 0 l 43 180 l 216 180 l 216 0 z m 43 360 l 43 540 l 216 540 l 216 360 z"},"$":{"x_min":0,"x_max":528,"ha":528,"o":"m 16 219 l 194 219 l 194 200 q 194 112 252 112 q 256 112 268 114 q 318 125 318 186 q 318 240 272 260 l 146 316 q 82 345 52 392 q 21 438 21 510 q 21 599 65 656 q 109 713 184 725 l 210 727 l 210 779 l 306 779 l 306 731 l 334 728 q 490 704 490 527 l 489 511 l 312 511 l 312 547 q 310 574 296 589 q 283 604 261 604 q 249 604 235 598 q 206 585 206 545 q 206 516 218 499 q 229 482 264 465 l 382 408 q 452 373 480 336 q 509 300 509 236 q 510 227 510 210 q 510 188 505 160 q 490 84 450 47 q 410 10 322 -10 l 302 -14 l 302 -73 l 208 -73 l 208 -16 l 188 -12 q 90 15 52 62 q 14 109 14 200 z"},"?":{"x_min":0,"x_max":464,"ha":464,"o":"m 7 483 l 174 483 l 175 552 q 175 581 189 596 q 203 610 222 610 q 231 610 239 606 q 267 595 267 553 q 267 534 262 510 q 258 486 231 454 l 197 414 l 163 376 q 142 346 136 313 l 133 289 l 133 216 l 301 216 l 301 236 q 301 253 303 262 q 304 264 310 280 q 316 295 333 316 l 396 388 q 442 439 442 521 q 442 538 440 548 q 438 559 438 564 q 424 651 372 690 q 320 729 216 729 q 7 729 7 496 z m 129 0 l 129 180 l 302 180 l 302 0 z"},"'":{"x_min":0,"x_max":200,"ha":200,"o":"m 26 474 l 48 720 l 174 720 l 152 474 z"},"a":{"x_min":0,"x_max":492,"ha":492,"o":"m 193 375 l 28 375 q 28 383 28 388 q 28 402 29 409 q 37 471 82 510 q 128 548 204 555 q 345 555 400 518 q 456 482 456 387 l 456 81 l 456 67 l 457 53 q 457 38 460 26 q 463 15 469 0 l 299 0 l 297 8 l 295 14 l 293 22 l 292 35 l 290 50 l 289 59 q 261 2 188 -8 q 170 -11 153 -11 q 86 -11 50 31 q 14 73 14 154 q 14 218 36 252 q 58 286 115 308 l 141 317 l 243 343 q 269 349 278 360 q 288 372 288 395 q 288 439 255 447 q 243 449 238 449 q 195 449 195 399 z m 229 240 l 221 236 q 186 213 186 181 q 186 147 200 128 q 213 110 235 110 q 245 110 250 112 q 269 118 278 139 q 288 160 288 203 l 288 265 z"},"L":{"x_min":0,"x_max":455,"ha":455,"o":"m 40 0 l 40 720 l 231 720 l 231 158 l 462 158 l 462 0 z"},"3":{"x_min":0,"x_max":534,"ha":534,"o":"m 31 215 l 211 215 l 210 193 q 210 152 221 132 q 232 112 247 108 q 262 105 270 105 q 295 105 304 130 q 314 156 314 220 q 314 282 299 301 q 284 320 237 320 l 205 320 l 198 320 l 198 438 l 213 436 q 248 436 266 442 q 283 449 294 467 q 305 485 305 515 q 305 527 304 533 l 303 561 q 303 584 292 596 q 281 608 262 608 q 251 608 240 605 q 229 602 220 585 q 210 568 210 532 l 210 515 l 39 515 q 39 526 39 536 q 39 547 41 560 q 53 642 108 686 q 164 729 263 729 q 488 729 488 549 q 488 530 485 506 q 482 482 472 458 q 444 396 391 388 q 440 388 472 345 q 503 302 503 225 q 503 104 446 47 q 389 -10 265 -10 q 151 -10 97 32 q 43 74 32 170 q 31 177 31 192 q 31 207 31 215 z"},";":{"x_min":0,"x_max":252,"ha":252,"o":"m 43 360 l 216 360 l 216 540 l 43 540 z m 43 0 l 43 180 l 216 180 l 216 20 q 216 -75 178 -127 q 140 -179 72 -179 l 46 -178 l 46 -95 q 53 -94 60 -93 q 67 -92 76 -88 q 109 -71 109 -26 l 109 0 z"},"J":{"x_min":0,"x_max":491,"ha":491,"o":"m -7 232 l 164 232 l 163 206 q 163 157 176 134 q 188 112 211 112 q 216 112 230 115 q 245 118 252 136 q 260 155 260 202 l 260 720 l 451 720 l 451 188 q 451 97 402 44 q 352 -10 264 -10 q 135 -10 73 30 q 11 70 -5 171 q -8 192 -8 213 q -8 226 -7 232 z"},"V":{"x_min":0,"x_max":541,"ha":541,"o":"m -7 720 l 196 720 l 270 182 l 345 720 l 548 720 l 394 0 l 146 0 z"},"\"":{"x_min":0,"x_max":380,"ha":380,"o":"m 48 720 l 174 720 l 152 474 l 26 474 z m 228 720 l 354 720 l 332 474 l 206 474 z"},"7":{"x_min":0,"x_max":534,"ha":534,"o":"m 33 562 l 33 720 l 496 720 l 496 579 q 461 515 431 445 q 401 375 377 300 q 329 145 314 0 l 118 0 l 127 68 q 146 189 177 274 q 208 360 288 514 l 314 562 z"},"S":{"x_min":0,"x_max":524,"ha":524,"o":"m 16 219 l 194 219 l 194 200 q 194 112 252 112 q 256 112 268 114 q 319 124 319 186 q 319 213 308 232 q 297 250 272 260 l 146 316 q 21 373 21 510 q 21 604 68 660 q 114 715 205 729 q 243 735 277 735 q 381 735 436 680 q 490 626 490 527 l 489 511 l 312 511 l 312 547 q 310 574 296 589 q 283 604 261 604 q 249 604 235 598 q 206 585 206 545 q 206 516 218 499 q 229 482 264 465 l 382 408 q 452 373 480 336 q 509 300 509 236 q 510 229 510 223 q 510 216 510 210 q 510 200 510 192 q 509 184 505 160 q 489 80 442 40 q 394 0 304 -10 q 272 -13 244 -13 q 127 -13 70 42 q 14 97 14 200 z"},"}":{"x_min":0,"x_max":256,"ha":256,"o":"m 26 -120 l 26 -45 l 39 -45 q 68 -45 68 6 l 68 270 q 68 298 83 320 q 98 342 126 354 l 152 360 l 126 366 q 100 377 84 400 q 68 423 68 450 l 68 714 q 68 765 39 765 l 26 765 l 26 840 l 100 840 q 145 840 170 816 q 195 792 195 747 l 195 432 q 195 395 202 381 q 209 367 230 360 q 210 353 202 338 q 195 323 195 288 l 195 -27 q 195 -70 170 -95 q 145 -120 100 -120 z"},"Z":{"x_min":0,"x_max":470,"ha":470,"o":"m 14 0 l 14 130 l 238 563 l 29 563 l 29 720 l 456 720 l 456 581 l 228 153 l 455 153 l 455 0 z"},"x":{"x_min":0,"x_max":466,"ha":466,"o":"m -11 0 l 130 280 l -5 540 l 178 540 l 233 391 l 288 540 l 472 540 l 336 280 l 477 0 l 294 0 l 234 162 l 172 0 z"},")":{"x_min":0,"x_max":351,"ha":351,"o":"m 22 -180 q 78 -86 106 2 q 139 104 139 208 l 141 273 q 141 472 63 651 l 29 720 l 173 720 q 228 644 262 554 q 296 464 310 350 q 314 317 314 274 q 314 212 302 146 q 291 81 268 13 q 234 -89 173 -180 z"},"&":{"x_min":0,"x_max":660,"ha":660,"o":"m 153 392 l 133 424 q 111 459 103 475 q 92 496 88 518 q 83 540 83 558 q 83 625 127 671 q 171 717 247 725 q 271 728 292 728 q 387 728 441 682 q 495 635 495 563 q 495 556 494 548 q 494 539 491 524 q 485 492 466 464 q 447 436 403 399 l 370 371 l 451 267 q 462 285 468 302 q 473 319 473 340 l 473 352 l 634 352 q 634 302 619 256 q 604 209 570 160 l 548 133 l 644 0 l 446 0 l 413 44 l 381 25 l 350 9 q 306 -13 258 -13 q 231 -13 195 -7 q 111 7 65 55 q 19 103 19 179 q 19 202 20 212 q 21 223 28 253 q 36 283 60 317 q 84 351 124 378 q 130 382 138 386 q 146 389 153 392 z m 235 276 q 195 247 195 206 q 195 183 210 162 q 234 127 270 127 q 298 127 331 151 l 339 158 l 247 283 z m 310 513 q 324 529 335 543 q 341 550 343 556 q 345 562 345 572 q 345 593 330 608 q 315 623 292 623 q 269 623 254 608 q 239 593 239 571 q 239 561 241 556 l 248 543 l 286 486 z"},"_":{"x_min":0,"x_max":412,"ha":412,"o":"m 26 -40 l 26 0 l 386 0 l 386 -40 z"},"v":{"x_min":0,"x_max":464,"ha":464,"o":"m -7 540 l 180 540 l 232 161 l 283 540 l 471 540 l 341 0 l 123 0 z"},"O":{"x_min":0,"x_max":556,"ha":556,"o":"m 20 375 q 20 530 72 622 q 138 739 277 739 q 321 739 350 732 q 379 725 406 711 q 478 675 505 607 q 532 539 532 375 q 532 168 486 80 q 441 -9 334 -9 q 194 -9 121 34 q 58 71 35 146 q 19 199 19 299 q 19 317 19 336 q 19 355 20 375 z m 216 309 q 216 188 228 150 q 241 113 277 113 q 311 113 324 150 q 336 187 336 309 l 336 415 q 336 534 324 571 q 311 608 277 608 q 242 608 229 571 q 216 534 216 415 z"},"(":{"x_min":0,"x_max":351,"ha":351,"o":"m 177 720 l 329 720 q 274 628 245 538 q 212 435 212 332 l 210 267 q 210 69 287 -111 l 321 -180 l 177 -180 q 122 -104 88 -14 q 54 77 41 190 q 38 215 37 228 q 36 241 36 268 q 36 390 82 527 q 115 625 177 720 z"},"C":{"x_min":0,"x_max":533,"ha":533,"o":"m 509 461 l 326 461 l 325 500 q 325 538 323 551 q 321 564 316 578 q 310 591 298 598 q 286 605 271 605 q 252 605 238 591 q 224 577 221 538 q 218 498 218 347 q 218 230 221 193 q 224 156 232 140 q 246 112 277 112 q 296 112 310 126 q 324 140 328 164 q 332 189 332 266 l 332 289 l 518 289 q 518 278 518 268 q 518 257 519 246 q 519 115 459 52 q 399 -11 272 -11 q 246 -11 217 -8 q 112 1 69 71 q 23 145 23 316 l 22 346 l 22 359 l 25 474 q 25 595 75 655 q 125 715 233 727 q 265 730 293 730 q 407 730 458 670 q 510 611 510 481 z"},"W":{"x_min":0,"x_max":770,"ha":770,"o":"m -4 720 l 180 720 l 234 237 l 301 720 l 469 720 l 536 237 l 590 720 l 774 720 l 655 0 l 449 0 l 384 466 l 321 0 l 116 0 z"},"A":{"x_min":0,"x_max":568,"ha":568,"o":"m -7 0 l 176 720 l 392 720 l 575 0 l 378 0 l 357 121 l 211 121 l 190 0 z m 334 267 l 284 557 l 234 267 z"},"f":{"x_min":0,"x_max":297,"ha":297,"o":"m -7 418 l -7 540 l 55 540 l 55 603 q 55 636 66 660 q 86 698 114 716 q 143 733 196 733 l 230 733 l 307 727 l 307 614 l 281 614 q 259 614 249 607 q 235 596 235 581 l 235 540 l 308 540 l 308 418 l 235 418 l 235 0 l 55 0 l 55 418 z"},"Q":{"x_min":0,"x_max":556,"ha":556,"o":"m 450 38 l 512 -38 l 399 -129 l 299 -12 l 277 -12 q 122 -12 74 86 q 25 185 25 479 q 25 614 86 674 q 148 733 277 733 q 323 733 352 728 q 382 723 406 711 q 478 675 505 607 q 532 539 532 375 q 532 198 507 139 q 501 126 450 38 z m 216 309 q 216 188 228 150 q 241 113 277 113 q 311 113 324 150 q 336 187 336 309 l 336 415 q 336 534 324 571 q 311 608 277 608 q 242 608 229 571 q 216 534 216 415 z"},"w":{"x_min":0,"x_max":740,"ha":740,"o":"m -4 540 l 176 540 l 222 166 l 278 540 l 462 540 l 519 166 l 564 540 l 744 540 l 631 0 l 426 0 l 370 371 l 314 0 l 109 0 z"},"-":{"x_min":0,"x_max":371,"ha":371,"o":"m 29 215 l 29 368 l 342 367 l 342 215 z"},"E":{"x_min":0,"x_max":490,"ha":490,"o":"m 40 0 l 40 720 l 464 720 l 464 569 l 231 569 l 231 439 l 450 439 l 450 295 l 231 295 l 231 151 l 472 151 l 472 0 z"},"s":{"x_min":0,"x_max":454,"ha":454,"o":"m 11 170 l 174 170 l 174 165 l 174 154 q 174 94 223 94 q 230 95 233 95 q 267 99 273 129 q 274 133 274 142 q 274 163 256 180 l 248 186 l 243 188 l 238 190 l 124 232 q 34 265 18 359 q 16 377 16 387 q 16 406 20 421 q 33 481 72 512 q 112 544 189 553 q 199 554 208 554 q 218 555 232 555 q 245 555 258 555 q 269 553 274 553 q 356 544 394 508 q 432 473 432 408 l 433 391 l 433 383 l 276 383 l 276 388 l 276 399 q 276 446 232 446 q 225 445 221 445 q 204 445 194 435 q 183 425 183 410 q 180 379 209 367 l 216 364 l 222 362 l 351 316 q 398 298 420 268 q 442 239 442 184 q 442 91 391 40 q 336 -15 230 -15 q 207 -15 181 -12 q 11 6 11 156 z"},"l":{"x_min":0,"x_max":252,"ha":252,"o":"m 36 0 l 36 720 l 216 720 l 216 0 z"},"8":{"x_min":0,"x_max":533,"ha":533,"o":"m 137 387 l 116 397 q 77 419 58 453 q 40 487 40 539 q 40 624 94 674 q 152 728 258 728 q 271 728 280 728 q 290 728 315 724 q 403 713 448 664 q 492 616 492 539 q 492 439 416 397 l 395 387 q 420 384 441 372 q 474 352 491 316 q 508 279 508 216 q 508 98 452 46 q 395 -7 264 -7 q 135 -7 80 46 q 24 98 24 216 q 24 280 40 316 q 57 352 91 372 q 102 378 114 382 q 125 387 137 387 z m 216 152 q 223 126 233 116 q 243 106 264 106 q 294 106 308 131 q 322 156 322 222 q 322 255 319 271 q 316 287 310 300 q 296 328 266 328 q 246 328 231 313 q 222 303 216 276 q 210 249 210 222 q 210 204 212 182 q 214 160 216 152 z m 265 440 q 313 440 313 500 l 313 534 q 313 575 301 592 q 289 608 264 608 q 240 608 230 588 q 219 567 219 513 l 219 500 q 219 471 232 456 q 244 440 265 440 z"},"\\":{"x_min":0,"x_max":304,"ha":304,"o":"m 26 720 l 152 720 l 278 0 l 152 0 z"},"e":{"x_min":0,"x_max":490,"ha":490,"o":"m 468 243 l 204 243 l 205 156 q 205 99 253 99 q 300 99 300 167 l 301 189 l 468 189 q 475 189 475 181 q 475 172 471 162 q 467 151 464 141 q 447 61 397 25 q 347 -11 252 -11 q 127 -11 76 52 q 22 118 22 280 q 22 409 66 476 q 110 542 194 552 q 237 557 266 557 q 368 557 418 508 q 467 460 467 357 q 467 356 469 330 q 471 304 471 285 q 471 274 470 262 q 469 249 468 243 z m 302 341 l 302 357 q 302 404 294 422 q 286 440 265 446 q 261 447 252 447 q 228 447 216 426 q 203 404 203 356 l 203 341 z"},"b":{"x_min":0,"x_max":521,"ha":521,"o":"m 36 0 l 36 720 l 216 720 l 216 489 q 234 521 268 540 q 301 559 343 559 q 425 559 462 484 q 498 409 498 228 q 498 154 484 110 q 470 65 443 37 q 420 13 388 0 q 357 -14 328 -14 q 294 -14 266 0 q 237 14 219 42 q 214 54 212 58 q 210 59 209 60 l 209 0 z m 213 259 l 215 209 q 215 172 224 154 q 232 135 246 129 q 259 123 267 123 q 290 123 302 152 q 315 182 315 247 l 315 274 l 315 282 l 313 341 q 313 386 300 404 q 287 422 259 422 q 242 422 232 408 q 223 393 219 366 q 215 340 214 332 q 214 325 214 294 l 213 273 z"},"%":{"x_min":0,"x_max":787,"ha":787,"o":"m 23 568 q 23 729 163 729 q 178 729 193 729 q 208 726 215 725 q 278 716 306 682 q 333 648 333 568 q 333 563 334 552 q 335 541 335 534 q 335 526 335 518 q 333 506 333 501 q 333 418 300 380 q 266 341 194 341 q 178 341 163 341 q 148 344 141 345 q 77 354 52 385 q 23 420 23 501 z m 183 0 l 501 720 l 600 720 l 287 0 z m 454 219 q 454 302 488 340 q 521 379 593 379 q 605 379 614 379 q 622 379 646 375 q 709 366 736 332 q 764 299 764 219 l 764 152 q 764 69 730 30 q 697 -8 625 -8 q 612 -8 599 -8 q 580 -5 571 -4 q 509 5 483 36 q 454 72 454 152 q 454 169 454 182 q 454 194 454 200 q 454 215 454 219 z m 150 457 q 158 427 178 427 q 180 427 190 430 q 201 433 206 457 q 207 474 208 500 q 208 526 208 534 q 208 543 208 548 q 208 556 208 560 q 208 604 206 612 q 199 642 178 642 q 157 642 150 612 q 150 581 150 552 q 149 522 149 494 q 149 460 150 457 z m 581 108 q 589 78 609 78 q 611 78 619 80 q 632 85 637 108 q 638 125 638 151 q 639 177 639 185 q 639 194 639 199 q 639 207 639 211 q 639 255 637 263 q 630 293 609 293 q 588 293 581 263 q 580 259 580 228 q 580 198 580 185 q 580 149 580 130 q 580 112 581 108 z"},"m":{"x_min":0,"x_max":783,"ha":783,"o":"m 36 0 l 36 540 l 208 540 l 208 481 l 220 497 q 267 557 341 557 q 347 557 355 556 q 363 555 368 555 q 410 550 430 537 q 450 524 468 489 l 475 474 l 486 493 q 506 521 530 534 q 553 548 589 553 q 598 554 614 554 q 631 554 639 553 q 697 544 722 512 q 747 480 747 414 l 747 0 l 567 0 l 567 365 l 564 388 q 555 418 529 418 q 518 418 508 411 q 484 396 480 363 l 479 354 l 479 0 l 299 0 l 299 371 l 297 392 q 289 419 262 419 q 257 419 251 417 q 246 415 241 412 q 229 405 222 392 q 216 378 216 361 l 216 0 z"},",":{"x_min":0,"x_max":245,"ha":245,"o":"m 36 0 l 36 180 l 209 180 l 209 20 q 209 -75 171 -127 q 133 -179 65 -179 l 39 -178 l 39 -95 q 55 -95 69 -88 q 102 -71 102 -26 l 102 0 z"},"n":{"x_min":0,"x_max":519,"ha":519,"o":"m 36 0 l 36 540 l 209 540 l 209 486 l 221 502 q 258 548 329 555 q 341 555 352 555 q 364 555 377 552 q 436 541 460 508 q 483 474 483 399 l 483 0 l 303 0 l 303 365 q 303 398 290 412 q 278 425 253 421 q 221 415 217 373 l 216 362 l 216 0 z"},"h":{"x_min":0,"x_max":519,"ha":519,"o":"m 36 0 l 36 720 l 216 720 l 216 489 l 228 505 q 250 530 272 542 q 295 554 316 556 q 336 558 348 558 q 363 558 377 555 q 436 544 460 510 q 483 477 483 402 l 483 0 l 303 0 l 303 365 q 303 398 290 412 q 278 425 253 421 q 221 415 217 373 l 216 362 l 216 0 z"},"z":{"x_min":0,"x_max":454,"ha":454,"o":"m 22 0 l 22 140 l 217 403 l 32 403 l 32 540 l 432 540 l 432 407 l 233 137 l 436 137 l 436 0 z"},"B":{"x_min":0,"x_max":558,"ha":558,"o":"m 40 0 l 40 720 l 322 720 q 415 720 468 674 q 522 628 522 548 q 522 509 516 482 q 509 456 493 433 q 461 390 412 378 q 439 375 461 363 q 499 344 520 306 q 540 267 540 211 q 540 110 486 55 q 432 0 330 0 z m 280 137 q 332 137 345 205 q 348 225 347 240 q 339 314 275 314 l 231 314 l 231 137 z m 271 437 q 307 437 325 470 q 333 483 333 511 q 333 581 266 581 l 231 581 l 231 437 z"},"K":{"x_min":0,"x_max":583,"ha":583,"o":"m 40 0 l 40 720 l 231 720 l 231 439 l 365 720 l 566 720 l 386 404 l 594 0 l 381 0 l 265 256 l 231 196 l 231 0 z"},"R":{"x_min":0,"x_max":559,"ha":559,"o":"m 40 0 l 40 720 l 336 720 q 393 720 425 708 q 457 696 485 665 q 510 639 520 607 q 531 575 531 527 q 531 455 508 417 q 485 379 433 361 l 418 357 q 468 349 501 306 q 515 286 521 268 q 527 249 527 217 l 527 75 l 529 42 l 532 28 l 534 20 l 540 0 l 352 0 q 345 16 342 30 q 340 44 340 79 l 340 97 l 340 228 q 340 295 279 295 l 231 295 l 231 0 z m 271 417 l 286 419 q 333 429 342 478 q 345 495 345 509 q 345 547 326 565 q 307 583 270 583 l 231 583 l 231 417 z"},"T":{"x_min":0,"x_max":449,"ha":449,"o":"m -11 562 l -11 720 l 460 720 l 460 562 l 324 562 l 324 0 l 133 0 l 133 562 z"},"P":{"x_min":0,"x_max":533,"ha":533,"o":"m 40 0 l 40 720 l 319 720 q 415 720 464 678 q 514 637 529 545 q 533 515 534 506 q 534 498 534 487 q 534 387 472 332 q 411 276 300 276 l 231 276 l 231 0 z m 273 412 q 292 412 312 427 q 331 442 337 472 q 340 487 340 500 q 340 538 322 560 q 303 583 275 583 l 231 583 l 231 412 z"},"t":{"x_min":0,"x_max":308,"ha":308,"o":"m -8 418 l -8 540 l 58 540 l 58 697 l 238 697 l 238 540 l 308 540 l 308 418 l 238 418 l 238 158 q 238 117 275 117 l 308 117 l 308 1 q 288 -2 271 -4 q 254 -6 236 -6 q 220 -6 206 -6 q 193 -6 181 -7 q 172 -7 167 -6 q 104 0 84 20 q 64 40 59 103 l 58 128 l 58 418 z"},"M":{"x_min":0,"x_max":767,"ha":767,"o":"m 40 0 l 40 720 l 303 720 l 383 297 l 463 720 l 727 720 l 727 0 l 554 0 l 554 510 l 455 0 l 311 0 l 213 510 l 213 0 z"},"g":{"x_min":0,"x_max":514,"ha":514,"o":"m 305 470 l 305 540 l 478 540 l 478 7 q 478 -82 436 -126 q 393 -171 298 -183 q 284 -185 259 -185 q 234 -185 221 -185 q 136 -185 94 -155 q 53 -125 43 -66 q 41 -52 41 -45 q 42 -37 42 -33 l 204 -33 l 204 -39 q 208 -73 245 -78 q 305 -86 305 -11 l 305 87 l 297 72 q 275 38 248 24 q 221 11 177 11 q 105 11 61 82 q 43 112 32 160 q 22 208 22 279 q 22 409 58 476 q 91 538 156 549 q 179 552 195 552 q 231 552 254 538 q 276 523 296 488 z m 205 241 q 205 198 212 179 q 220 160 235 150 q 244 144 256 144 q 280 144 294 169 q 301 183 304 205 q 308 227 308 270 q 308 342 303 368 q 298 393 283 407 q 272 417 258 417 q 249 417 240 412 q 232 408 222 398 q 213 388 208 354 q 204 319 204 283 q 204 269 204 258 q 204 248 205 241 z"},"j":{"x_min":0,"x_max":251,"ha":251,"o":"m -38 -173 l -38 -54 l -19 -54 l -8 -53 q 17 -51 26 -40 q 35 -29 35 -2 l 35 540 l 215 540 l 215 -37 q 215 -118 168 -147 q 122 -176 -3 -176 z m 35 583 l 35 720 l 215 720 l 215 583 z"},"i":{"x_min":0,"x_max":252,"ha":252,"o":"m 36 0 l 36 540 l 216 540 l 216 0 z m 36 583 l 36 720 l 216 720 l 216 583 z"},"y":{"x_min":0,"x_max":459,"ha":459,"o":"m -11 540 l 177 540 l 232 186 l 285 540 l 466 540 l 323 -19 q 297 -119 256 -152 q 214 -184 120 -184 l 38 -179 l 38 -59 l 74 -59 q 92 -59 108 -55 q 125 -48 132 -39 q 139 -30 139 -20 l 137 -1 z"},".":{"x_min":0,"x_max":245,"ha":245,"o":"m 36 0 l 36 180 l 209 180 l 209 0 z"},"p":{"x_min":0,"x_max":521,"ha":521,"o":"m 36 -180 l 36 540 l 209 540 l 209 489 q 236 542 307 555 q 315 557 326 558 q 338 559 347 559 q 424 559 461 480 q 498 402 498 228 q 498 167 490 130 q 481 94 463 63 q 442 27 406 7 q 369 -13 331 -13 q 274 -13 239 25 q 235 30 224 51 q 220 55 216 60 l 216 -180 z m 213 259 l 215 209 q 215 172 224 154 q 232 135 246 129 q 259 123 267 123 q 290 123 302 152 q 315 182 315 247 l 315 274 l 315 282 l 313 341 q 313 386 300 404 q 287 422 259 422 q 242 422 232 408 q 223 393 219 366 q 215 340 214 332 q 214 325 214 294 l 213 273 z"},"X":{"x_min":0,"x_max":538,"ha":538,"o":"m -11 0 l 155 366 l -4 720 l 207 720 l 269 503 l 331 720 l 542 720 l 383 366 l 549 0 l 342 0 l 268 220 l 196 0 z"},"*":{"x_min":0,"x_max":460,"ha":460,"o":"m 22 536 l 56 631 l 181 583 l 181 727 l 279 727 l 279 583 l 404 631 l 438 536 l 305 491 l 386 385 l 308 328 l 229 436 l 152 328 l 73 385 l 155 491 z"},"Y":{"x_min":0,"x_max":546,"ha":546,"o":"m -11 720 l 200 720 l 273 456 l 346 720 l 557 720 l 368 282 l 368 0 l 178 0 l 178 282 z"},"c":{"x_min":0,"x_max":489,"ha":489,"o":"m 474 341 l 309 341 l 309 361 l 307 383 q 304 412 298 425 q 286 448 259 448 q 246 448 234 440 q 223 432 216 416 q 208 399 208 370 q 208 202 216 155 q 224 108 257 108 q 271 108 284 115 q 296 122 304 140 q 311 158 311 194 l 311 226 l 311 231 l 475 231 l 475 186 q 458 -9 259 -9 q 244 -9 229 -9 q 207 -6 196 -5 q 114 6 67 66 q 16 131 16 245 q 16 319 40 417 q 77 564 257 564 q 373 564 419 522 q 465 481 474 371 z"},"!":{"x_min":0,"x_max":275,"ha":275,"o":"m 72 217 l 203 217 l 225 488 l 225 720 l 50 720 l 50 488 z m 50 0 l 50 180 l 223 180 l 223 0 z"},"/":{"x_min":0,"x_max":384,"ha":384,"o":"m 14 0 l 242 720 l 370 720 l 141 0 z"},"[":{"x_min":0,"x_max":325,"ha":325,"o":"m 36 -180 l 36 720 l 311 720 l 311 590 l 209 590 l 209 -50 l 311 -50 l 311 -180 z"},"6":{"x_min":0,"x_max":533,"ha":533,"o":"m 496 540 l 322 540 q 321 553 319 566 q 317 578 312 586 q 298 609 272 609 q 255 609 241 596 q 227 584 222 566 q 218 547 218 498 l 216 429 q 244 461 287 474 l 321 480 q 421 480 463 436 q 510 387 510 268 q 510 257 510 251 q 510 225 507 201 q 494 100 452 56 q 411 11 320 -3 q 297 -7 269 -7 q 262 -7 254 -6 q 245 -5 241 -5 q 108 9 69 96 q 30 184 30 454 q 30 589 78 650 q 127 712 233 724 q 248 725 262 726 q 275 728 291 728 q 385 728 435 686 q 485 644 495 564 z m 218 228 q 218 178 226 152 q 239 112 272 112 q 305 112 316 154 q 322 178 322 234 q 322 284 314 309 q 301 348 268 348 q 228 348 220 289 q 218 273 218 228 z"},"r":{"x_min":0,"x_max":356,"ha":356,"o":"m 36 0 l 36 540 l 209 540 l 209 466 l 217 480 q 244 522 272 539 q 299 556 342 556 l 367 555 l 367 384 l 344 387 q 273 387 244 366 q 216 346 216 295 l 216 0 z"},"2":{"x_min":0,"x_max":534,"ha":534,"o":"m 32 0 q 32 51 40 92 q 47 132 68 173 q 85 209 108 238 q 132 267 181 314 l 237 372 q 291 432 304 458 q 317 484 317 528 q 317 544 316 554 q 314 564 310 574 q 295 609 266 609 q 259 609 245 604 q 231 600 222 578 q 212 555 212 506 l 213 484 l 35 484 l 34 512 q 34 585 57 628 q 80 672 134 701 q 165 718 208 724 q 250 729 279 729 q 378 729 432 688 q 485 647 498 568 q 506 520 506 491 q 506 451 492 421 q 479 391 445 349 l 322 222 l 308 209 l 284 182 l 273 169 l 268 163 l 257 144 l 499 144 l 499 0 z"},"{":{"x_min":0,"x_max":256,"ha":256,"o":"m 26 360 q 47 367 54 382 q 62 397 62 432 l 62 747 q 62 790 87 815 q 112 840 156 840 l 230 840 l 230 765 l 218 765 q 203 765 196 754 q 189 743 189 714 l 189 450 q 189 408 155 380 q 132 363 104 360 l 131 354 q 189 329 189 270 l 189 6 q 189 -45 218 -45 l 230 -45 l 230 -120 l 156 -120 q 111 -120 86 -96 q 62 -71 62 -27 l 62 288 q 62 325 55 339 q 48 353 26 360 z"},"9":{"x_min":0,"x_max":533,"ha":533,"o":"m 37 180 l 211 180 l 211 168 q 211 157 213 150 q 214 145 221 134 q 235 111 261 111 q 278 111 292 124 q 306 136 310 154 q 315 173 315 222 l 317 291 q 291 259 246 246 l 213 240 q 113 240 70 284 q 23 332 23 452 q 23 468 23 480 q 23 492 27 519 q 40 620 81 664 q 122 709 213 723 q 236 727 265 727 q 272 727 280 726 q 289 725 293 725 q 425 711 464 624 q 504 536 504 266 q 504 131 456 70 q 407 8 301 -4 q 273 -8 242 -8 q 149 -8 98 34 q 48 77 39 156 z m 229 388 q 240 371 262 371 q 286 371 299 390 q 307 399 311 414 q 315 430 315 465 q 315 478 315 489 q 315 530 311 557 q 307 584 292 595 q 278 606 263 606 q 234 606 223 577 q 219 566 215 534 q 211 501 211 473 q 211 454 218 425 q 225 396 229 388 z"}," ":{"x_min":0,"x_max":290,"ha":290,"o":""},"I":{"x_min":0,"x_max":271,"ha":271,"o":"m 40 0 l 40 720 l 231 720 l 231 0 z"},"H":{"x_min":0,"x_max":569,"ha":569,"o":"m 40 0 l 40 720 l 231 720 l 231 450 l 338 450 l 338 720 l 529 720 l 529 0 l 338 0 l 338 292 l 231 292 l 231 0 z"},"4":{"x_min":0,"x_max":533,"ha":533,"o":"m 17 147 l 17 289 l 240 720 l 443 720 l 443 285 l 507 285 l 507 147 l 443 147 l 443 0 l 263 0 l 263 147 q 250 148 228 148 q 207 148 186 148 q 130 148 91 148 q 52 148 17 147 z m 270 284 l 270 519 l 158 284 z"},"~":{"x_min":0,"x_max":490,"ha":490,"o":"m 26 271 l 27 296 q 34 374 66 414 q 99 453 152 453 q 167 453 180 450 q 194 447 215 440 l 298 408 l 321 400 q 330 397 337 397 q 356 397 366 426 q 370 438 370 445 l 371 454 l 464 454 l 463 429 q 449 273 339 273 q 312 273 275 286 l 192 317 l 169 325 q 161 329 152 329 q 135 329 124 299 q 120 289 120 281 l 119 271 z"},"D":{"x_min":0,"x_max":560,"ha":560,"o":"m 40 0 l 40 720 l 329 720 q 393 720 435 695 q 477 670 507 612 q 521 584 529 545 q 537 506 537 438 q 537 410 537 382 q 537 354 538 325 q 538 158 494 89 q 451 20 344 3 l 308 0 z m 265 137 q 336 137 342 208 l 344 237 l 345 252 q 345 272 345 282 q 345 299 345 307 q 345 321 345 328 q 345 340 345 346 q 345 357 345 362 q 345 371 345 376 q 345 384 345 389 q 345 408 344 428 q 344 447 344 467 q 344 475 344 479 l 343 494 l 341 516 q 335 583 269 583 l 231 583 l 231 136 z"},"^":{"x_min":0,"x_max":521,"ha":521,"o":"m 26 155 l 260 576 l 495 155 l 352 155 l 260 335 l 169 155 z"},"0":{"x_min":0,"x_max":534,"ha":534,"o":"m 34 361 q 34 478 43 531 q 59 624 104 671 q 159 728 265 728 q 396 728 451 670 q 510 608 510 453 q 510 170 462 80 q 415 -9 265 -9 q 152 -9 97 49 q 52 96 40 189 q 34 235 34 361 z m 212 202 q 212 147 224 128 q 237 108 266 108 q 294 108 306 128 q 319 147 319 202 l 319 516 q 319 566 309 586 q 299 605 283 608 q 267 611 262 611 q 237 611 224 589 q 212 567 212 516 z"},"F":{"x_min":0,"x_max":467,"ha":467,"o":"m 40 0 l 40 720 l 467 720 l 467 569 l 231 569 l 231 441 l 451 441 l 451 297 l 231 297 l 231 0 z"},"`":{"x_min":0,"x_max":265,"ha":265,"o":"m 1 731 l 167 731 l 212 583 l 98 583 z"},"k":{"x_min":0,"x_max":520,"ha":520,"o":"m 36 0 l 36 720 l 216 720 l 216 362 l 318 540 l 511 540 l 362 320 l 531 0 l 334 0 l 242 187 l 216 141 l 216 0 z"},"u":{"x_min":0,"x_max":519,"ha":519,"o":"m 36 142 l 36 540 l 216 540 l 216 175 q 216 142 228 128 q 241 115 265 119 q 298 125 302 167 l 303 178 l 303 540 l 483 540 l 483 0 l 310 0 l 310 56 l 298 39 q 276 13 251 0 q 226 -13 190 -13 q 184 -14 171 -14 q 156 -14 141 -11 q 82 0 59 33 q 36 66 36 142 z"},"]":{"x_min":0,"x_max":325,"ha":325,"o":"m 14 -180 l 14 -50 l 117 -50 l 117 590 l 14 590 l 14 720 l 289 720 l 289 -180 z"},"U":{"x_min":0,"x_max":570,"ha":570,"o":"m 40 219 l 40 720 l 231 720 l 231 188 q 231 146 244 128 q 257 111 285 111 q 314 111 326 128 q 339 145 339 188 l 339 720 l 530 720 l 530 221 q 530 102 474 44 q 418 -14 294 -14 q 263 -14 218 -9 q 40 12 40 219 z"},"o":{"x_min":0,"x_max":499,"ha":499,"o":"m 23 311 q 23 450 74 504 q 125 558 249 558 q 373 558 424 504 q 476 449 476 311 l 476 230 q 476 91 424 37 q 372 -17 247 -17 q 125 -17 74 37 q 23 91 23 230 z m 199 197 l 200 175 q 203 139 207 126 q 211 114 222 104 q 233 95 246 95 q 272 95 283 123 q 287 135 289 148 q 291 160 291 175 l 292 197 l 292 343 l 291 365 q 291 407 279 426 q 267 444 246 444 q 224 444 212 426 q 200 407 200 365 l 199 343 z"},"N":{"x_min":0,"x_max":581,"ha":581,"o":"m 40 0 l 40 720 l 245 720 l 369 286 l 369 720 l 541 720 l 541 0 l 339 0 l 213 432 l 213 0 z"},"G":{"x_min":0,"x_max":550,"ha":550,"o":"m 512 492 l 327 492 l 327 500 l 327 525 q 327 565 314 586 q 301 607 278 607 q 266 607 257 603 q 237 595 228 570 q 218 545 218 485 l 214 357 l 214 339 l 216 242 q 216 200 220 176 q 223 153 229 139 q 243 112 275 112 q 294 112 310 124 q 327 136 332 158 q 338 181 338 238 l 336 263 l 274 263 l 274 385 l 514 385 l 514 0 l 386 0 l 381 57 l 369 43 q 341 12 310 -1 q 279 -14 230 -14 q 119 -14 73 47 q 24 112 24 273 q 24 533 62 622 q 100 710 223 727 q 241 730 267 731 q 293 732 295 732 q 397 732 450 681 q 503 630 512 530 z"},"q":{"x_min":0,"x_max":521,"ha":521,"o":"m 312 489 l 312 540 l 485 540 l 485 -180 l 305 -180 l 305 60 q 302 53 298 47 q 291 35 282 25 q 248 -13 189 -13 q 149 -13 115 6 q 81 24 58 63 q 40 94 32 130 q 23 165 23 228 q 23 403 60 481 q 96 559 174 559 q 195 559 222 554 q 248 549 270 533 q 288 520 312 489 z m 320 274 l 319 341 q 319 387 306 404 q 292 422 264 422 q 247 422 238 408 q 228 393 223 357 l 219 294 l 219 273 l 220 209 q 220 172 228 154 q 237 135 251 129 q 265 123 273 123 q 295 123 308 152 q 320 182 320 246 z"},"d":{"x_min":0,"x_max":521,"ha":521,"o":"m 303 489 l 303 720 l 483 720 l 483 0 l 310 0 l 310 60 l 300 42 q 283 16 253 1 q 223 -14 190 -14 q 126 -14 76 37 q 49 65 35 110 q 21 154 21 228 q 21 410 58 484 q 94 559 176 559 q 216 559 248 540 q 276 524 303 489 z m 204 246 q 204 180 216 152 q 228 123 251 123 q 260 123 274 129 q 287 135 296 152 q 304 170 304 209 q 304 255 304 300 q 303 344 301 357 q 291 422 260 422 q 233 422 219 404 q 205 385 205 341 l 204 274 z"},"1":{"x_min":0,"x_max":534,"ha":534,"o":"m 56 490 l 56 614 l 74 613 l 114 616 q 169 622 196 640 q 223 658 240 698 l 246 720 l 376 720 l 376 0 l 188 0 l 188 490 z"},"5":{"x_min":0,"x_max":534,"ha":534,"o":"m 33 220 l 213 220 l 213 203 q 213 156 222 136 q 232 115 246 112 q 261 109 265 109 q 292 109 304 151 q 315 193 315 297 q 315 343 302 362 q 290 380 263 380 q 240 380 230 370 q 219 360 214 330 l 213 322 l 42 322 l 66 720 l 471 720 l 471 583 l 202 583 l 195 459 l 210 470 q 256 500 297 505 q 305 506 312 506 q 320 507 330 507 q 415 507 459 446 q 503 384 503 258 q 503 128 456 67 q 410 6 307 -6 q 295 -7 286 -8 q 277 -8 272 -8 q 261 -8 250 -8 q 238 -7 227 -7 q 138 1 91 44 q 44 87 34 173 q 33 179 33 185 q 33 193 33 196 q 33 212 33 220 z"}}}
